<svg width="3657" height="438" viewBox="0 0 3657 438" fill="none" xmlns="http://www.w3.org/2000/svg">
<path d="M-8.49366e-07 420L48 402L213 2.99998H231L402 411L432 420V429H360C339.2 429 322.2 424.4 309 415.2C295.8 405.6 286 393.2 279.6 378L249 306H105.6L66 402L111 420V429H-8.49366e-07V420ZM111.6 291H243L177 133.2L111.6 291ZM639.094 438C575.094 438 525.094 419 489.094 381C453.094 343 435.094 289 435.094 219C435.094 173 442.894 133.6 458.494 100.8C474.494 67.6 496.694 42.6 525.094 25.8C553.894 8.59998 587.094 -2.00272e-05 624.694 -2.00272e-05C647.494 -2.00272e-05 670.494 6.59998 693.694 19.8C702.494 24.6 711.294 31 720.094 39C726.894 28.6 733.894 20.4 741.094 14.4C748.294 9.19997 752.294 6.39997 753.094 5.99997H768.094V120H744.094C738.894 100.8 731.094 83.4 720.694 67.8C711.094 52.6 699.094 40 684.694 30C670.694 20 654.494 15 636.094 15C608.494 15 585.494 31 567.094 63C549.094 95 540.094 147 540.094 219C540.094 292.2 549.894 344.6 569.494 376.2C589.494 407.4 616.694 423 651.094 423C669.894 423 687.694 417.8 704.494 407.4C721.694 396.6 735.494 382.4 745.894 364.8C756.694 347.2 762.094 328.6 762.094 309H777.094C777.094 331.8 770.894 353.2 758.494 373.2C746.494 392.8 729.894 408.6 708.694 420.6C687.894 432.2 664.694 438 639.094 438ZM903.328 420L939.328 411V24H870.328C870.328 48.4 863.728 71.8 850.528 94.2C844.928 103.4 838.528 111 831.328 117H813.328V8.99997H1164.33V117H1146.33C1138.73 111 1132.13 103.4 1126.53 94.2C1113.73 72.6 1107.33 49.2 1107.33 24H1038.33V411L1074.33 420V429H903.328V420ZM1209.19 420L1245.19 411V27L1209.19 18V8.99997H1377.19C1443.59 8.99997 1491.19 20 1519.99 42C1548.79 63.6 1563.19 95.6 1563.19 138C1563.19 180.4 1548.79 212.6 1519.99 234.6C1491.19 256.2 1443.59 267 1377.19 267H1344.19V411L1380.19 420V429H1209.19V420ZM1377.19 252C1402.39 252 1422.59 242.4 1437.79 223.2C1453.39 204 1461.19 175.6 1461.19 138C1461.19 100.8 1453.39 72.6 1437.79 53.4C1422.59 33.8 1402.39 24 1377.19 24H1344.19V252H1377.19ZM1529.88 420L1577.88 402L1742.88 2.99998H1760.88L1931.88 411L1961.88 420V429H1889.88C1869.08 429 1852.08 424.4 1838.88 415.2C1825.68 405.6 1815.88 393.2 1809.48 378L1778.88 306H1635.48L1595.88 402L1640.88 420V429H1529.88V420ZM1641.48 291H1772.88L1706.88 133.2L1641.48 291ZM1958.7 420L2006.7 402L2108.7 251.4L1976.7 27L1946.7 18V8.99997H2033.7C2053.7 8.99997 2069.5 13.2 2081.1 21.6C2093.1 30 2104.3 42.8 2114.7 60L2172.3 158.4L2255.7 36L2210.7 18V8.99997H2324.7V18L2276.7 36L2182.5 174.6L2321.7 411L2351.7 420V429H2264.7C2245.1 429 2229.3 424.8 2217.3 416.4C2205.3 408 2194.1 395.2 2183.7 378L2118.9 268.2L2027.7 402L2072.7 420V429H1958.7V420ZM2336.72 420L2384.72 402L2549.72 2.99998H2567.72L2738.72 411L2768.72 420V429H2696.72C2675.92 429 2658.92 424.4 2645.72 415.2C2632.52 405.6 2622.72 393.2 2616.32 378L2585.72 306H2442.32L2402.72 402L2447.72 420V429H2336.72V420ZM2448.32 291H2579.72L2513.72 133.2L2448.32 291ZM2786.53 429V420L2822.53 411V27L2786.53 18V8.99997H2957.53V18L2921.53 27V213H3050.53V27L3014.53 18V8.99997H3185.53V18L3149.53 27V411L3185.53 420V429H3014.53V420L3050.53 411V228H2921.53V411L2957.53 420V429H2786.53ZM3245.32 429V420L3281.32 411V27L3245.32 18V8.99997H3416.32V18L3380.32 27V330L3521.32 72V27L3485.32 18V8.99997H3656.32V18L3620.32 27V411L3656.32 420V429H3485.32V420L3521.32 411V108L3380.32 366V411L3416.32 420V429H3245.32Z" fill="#F5EEE2"/>
</svg>
